<svg width="386" height="137" viewBox="0 0 386 137" fill="none" xmlns="http://www.w3.org/2000/svg">
<g clip-path="url(#clip0_154_6)">
<g filter="url(#filter0_d_154_6)">
<path d="M338.095 99.74C361.845 65.2 365.095 21.49 365.095 21.49C364.987 21.4507 364.89 21.3843 364.814 21.2971C364.738 21.2099 364.685 21.1048 364.661 20.9917C364.637 20.8786 364.642 20.7612 364.676 20.6506C364.71 20.5401 364.772 20.4401 364.855 20.36C503.225 -115.47 522.735 -336.09 402.915 -495.06C272.735 -667.78 26.7354 -702.29 -146.005 -572.09C-318.745 -441.89 -353.365 -195.99 -223.005 -23.09C-94.6546 147.14 145.675 183.16 318.045 59.71C344.875 67.97 338.095 99.74 338.095 99.74Z" fill="#6663FD"/>
<path d="M337.606 99.6356L338.507 100.023C350.429 82.6856 357.198 63.0599 360.987 47.7828C362.882 40.1417 364.034 33.5822 364.711 28.9315C365.05 26.606 365.271 24.7573 365.406 23.4889C365.474 22.8546 365.521 22.3654 365.551 22.0342L365.565 21.8808C365.573 21.7885 365.579 21.7138 365.584 21.6573L365.591 21.5608L365.593 21.536L365.594 21.5295L365.594 21.5278C365.594 21.5273 365.594 21.527 365.095 21.49L365.594 21.527L365.622 21.1487L365.265 21.0198C365.251 21.0145 365.237 21.0075 365.225 20.9988C365.212 20.9903 365.201 20.9802 365.191 20.9687C365.185 20.9623 365.18 20.9555 365.176 20.9484C365.164 20.9299 365.155 20.9094 365.15 20.8877C365.144 20.8578 365.145 20.8267 365.154 20.7976C365.163 20.7681 365.18 20.7417 365.202 20.7208L365.206 20.7168C503.753 -115.287 523.288 -336.188 403.315 -495.361C272.968 -668.302 26.6549 -702.855 -146.306 -572.489C-319.266 -442.123 -353.93 -195.91 -223.404 -22.789C-94.9403 147.592 145.558 183.696 318.134 60.2613C331.139 64.3636 336.013 74.11 337.64 82.9133C338.459 87.3475 338.451 91.5325 338.237 94.6121C338.13 96.1509 337.971 97.4108 337.84 98.2844C337.774 98.7211 337.715 99.0611 337.673 99.2908C337.652 99.4057 337.635 99.493 337.624 99.551L337.611 99.6159L337.607 99.6315L337.607 99.635L337.606 99.6356Z" stroke="#1B1F3A"/>
</g>
</g>
<defs>
<filter id="filter0_d_154_6" x="-303" y="-652" width="785.907" height="787.921" filterUnits="userSpaceOnUse" color-interpolation-filters="sRGB">
<feFlood flood-opacity="0" result="BackgroundImageFix"/>
<feColorMatrix in="SourceAlpha" type="matrix" values="0 0 0 0 0 0 0 0 0 0 0 0 0 0 0 0 0 0 127 0" result="hardAlpha"/>
<feOffset dy="2"/>
<feComposite in2="hardAlpha" operator="out"/>
<feColorMatrix type="matrix" values="0 0 0 0 0.105882 0 0 0 0 0.121569 0 0 0 0 0.227451 0 0 0 1 0"/>
<feBlend mode="normal" in2="BackgroundImageFix" result="effect1_dropShadow_154_6"/>
<feBlend mode="normal" in="SourceGraphic" in2="effect1_dropShadow_154_6" result="shape"/>
</filter>
<clipPath id="clip0_154_6">
<rect width="386" height="137" fill="white"/>
</clipPath>
</defs>
</svg>
