<svg width="15" height="15" viewBox="0 0 15 15" fill="none" xmlns="http://www.w3.org/2000/svg">
<path d="M7.61864 1.46051C9.48773 1.46051 9.7091 1.46762 10.4472 1.5013C11.1297 1.53244 11.5004 1.64648 11.7471 1.74232C12.0738 1.8693 12.307 2.02102 12.5519 2.26595C12.7969 2.51089 12.9486 2.7441 13.0755 3.07082C13.1714 3.31751 13.2854 3.68815 13.3166 4.37062C13.3503 5.10877 13.3574 5.33014 13.3574 7.19923C13.3574 9.06832 13.3503 9.2897 13.3166 10.0278C13.2854 10.7103 13.1714 11.081 13.0755 11.3276C12.9486 11.6544 12.7969 11.8876 12.5519 12.1325C12.307 12.3774 12.0738 12.5292 11.7471 12.6561C11.5004 12.752 11.1297 12.866 10.4472 12.8972C9.70921 12.9308 9.48784 12.938 7.61864 12.938C5.74944 12.938 5.52806 12.9308 4.79005 12.8972C4.10756 12.866 3.73691 12.752 3.49025 12.6561C3.16351 12.5292 2.9303 12.3774 2.68536 12.1325C2.44042 11.8876 2.28871 11.6544 2.16175 11.3276C2.06589 11.081 1.95185 10.7103 1.9207 10.0278C1.88702 9.2897 1.87991 9.06832 1.87991 7.19923C1.87991 5.33014 1.88702 5.10877 1.9207 4.37065C1.95185 3.68815 2.06589 3.31751 2.16175 3.07082C2.28871 2.7441 2.44042 2.51089 2.68536 2.26595C2.9303 2.02102 3.16351 1.8693 3.49025 1.74232C3.73691 1.64648 4.10756 1.53244 4.79002 1.5013C5.52817 1.46762 5.74955 1.46051 7.61864 1.46051ZM7.61864 0.199219C5.71754 0.199219 5.47919 0.207277 4.73256 0.241343C3.98746 0.275354 3.47864 0.393669 3.03336 0.566724C2.57305 0.745613 2.18267 0.984967 1.79352 1.37412C1.40437 1.76327 1.16502 2.15364 0.986129 2.61395C0.813075 3.05923 0.69476 3.56806 0.660749 4.31316C0.626683 5.05975 0.618652 5.29813 0.618652 7.19923C0.618652 9.10033 0.626683 9.33871 0.660749 10.0853C0.69476 10.8304 0.813075 11.3392 0.986129 11.7845C1.16502 12.2448 1.40437 12.6352 1.79352 13.0243C2.18267 13.4135 2.57305 13.6529 3.03336 13.8317C3.47864 14.0048 3.98746 14.1231 4.73256 14.1571C5.47919 14.1912 5.71754 14.1992 7.61864 14.1992C9.51974 14.1992 9.75812 14.1912 10.5047 14.1571C11.2498 14.1231 11.7586 14.0048 12.2039 13.8317C12.6642 13.6529 13.0546 13.4135 13.4438 13.0243C13.8329 12.6352 14.0723 12.2448 14.2511 11.7845C14.4242 11.3392 14.5425 10.8304 14.5765 10.0853C14.6106 9.33871 14.6187 9.10033 14.6187 7.19923C14.6187 5.29813 14.6106 5.05975 14.5765 4.31316C14.5425 3.56806 14.4242 3.05923 14.2511 2.61395C14.0723 2.15364 13.8329 1.76327 13.4438 1.37412C13.0546 0.984967 12.6642 0.745613 12.2039 0.566724C11.7586 0.393669 11.2498 0.275354 10.5047 0.241343C9.75812 0.207277 9.51974 0.199219 7.61864 0.199219ZM7.61864 3.60463C5.6334 3.60463 4.02403 5.214 4.02403 7.19923C4.02403 9.18447 5.6334 10.7938 7.61864 10.7938C9.60388 10.7938 11.2132 9.18447 11.2132 7.19923C11.2132 5.214 9.60388 3.60463 7.61864 3.60463ZM7.61864 9.53258C6.32998 9.53258 5.28529 8.48789 5.28529 7.19923C5.28529 5.91058 6.32998 4.86589 7.61864 4.86589C8.9073 4.86589 9.95199 5.91058 9.95199 7.19923C9.95199 8.48789 8.9073 9.53258 7.61864 9.53258ZM12.1952 3.46261C12.1952 3.92653 11.8192 4.30262 11.3553 4.30262C10.8913 4.30262 10.5152 3.92653 10.5152 3.46261C10.5152 2.99869 10.8913 2.62262 11.3553 2.62262C11.8192 2.62262 12.1952 2.99869 12.1952 3.46261Z" fill="white"/>
</svg>
