<svg width="15" height="15" viewBox="0 0 15 15" fill="none" xmlns="http://www.w3.org/2000/svg">
<path d="M7.49507 0.877237C3.79769 1.05329 0.879929 4.13249 0.891146 7.83406C0.894561 8.96147 1.16674 10.0256 1.64687 10.9658L0.909695 14.5442C0.869817 14.7377 1.04439 14.9072 1.23668 14.8617L4.74302 14.0309C5.64385 14.4797 6.65568 14.7389 7.72653 14.7552C11.5056 14.8129 14.6567 11.8122 14.7745 8.03455C14.9008 3.98514 11.5586 0.683711 7.49507 0.877237ZM11.6789 11.6569C10.652 12.6838 9.28673 13.2493 7.83454 13.2493C6.98423 13.2493 6.17015 13.0585 5.41483 12.6823L4.92653 12.439L2.77679 12.9484L3.22929 10.7517L2.98873 10.2806C2.59662 9.51272 2.3978 8.68233 2.3978 7.81257C2.3978 6.36035 2.96331 4.99509 3.99017 3.9682C5.00786 2.95051 6.39542 2.37579 7.83464 2.37579C9.28683 2.37582 10.6521 2.94134 11.6789 3.96816C12.7058 4.99502 13.2713 6.36028 13.2713 7.81247C13.2713 9.25172 12.6966 10.6393 11.6789 11.6569Z" fill="white"/>
<path d="M11.2042 9.3185L9.85922 8.93232C9.6824 8.88156 9.49199 8.93171 9.36315 9.063L9.03425 9.39808C8.89557 9.53938 8.68514 9.58478 8.50159 9.51052C7.86536 9.25304 6.52702 8.06309 6.18524 7.46788C6.08663 7.29618 6.10294 7.08153 6.22401 6.92487L6.51115 6.55339C6.62365 6.40784 6.64739 6.21237 6.57299 6.04412L6.00715 4.76434C5.87161 4.45781 5.4799 4.36858 5.224 4.58501C4.84863 4.90249 4.40326 5.38493 4.34912 5.9194C4.25366 6.86172 4.65779 8.0496 6.18601 9.47593C7.95151 11.1237 9.36532 11.3414 10.2858 11.1185C10.808 10.992 11.2252 10.485 11.4886 10.0699C11.6681 9.78688 11.5263 9.41101 11.2042 9.3185Z" fill="white"/>
</svg>
