<svg width="238" height="412" viewBox="0 0 238 412" fill="none" xmlns="http://www.w3.org/2000/svg">
<g clip-path="url(#clip0_660_25084)">
<path fill-rule="evenodd" clip-rule="evenodd" d="M237.32 126.54C237.158 125.815 236.738 125.164 236.13 124.691C235.521 124.219 234.76 123.954 233.97 123.94C232.532 123.679 231.042 123.905 229.765 124.578C229.256 124.894 228.673 125.09 228.065 125.149C227.458 125.209 226.844 125.131 226.276 124.921C223.458 124.219 220.493 124.219 217.675 124.921C213.01 126.095 208.783 128.455 205.462 131.741C197.424 139.501 191.375 148.874 187.771 159.148C186.305 163.204 184.927 167.325 183.496 171.364C183.322 171.838 183.078 172.296 182.694 173.13C182.327 172.1 182.031 171.495 181.874 170.759C179.902 162.583 177.564 154.537 176.151 146.229C175.731 143.966 175.509 141.675 175.488 139.378C175.488 135.093 175.488 130.792 175.488 126.508C175.375 120.653 174.886 114.81 174.023 109.01C172.819 100.408 171.475 91.8227 170.429 83.2046C169.207 72.8041 168.248 62.3054 166.363 51.8721C165.815 48.0405 164.94 44.2562 163.746 40.5558C162.002 35.4863 160.257 30.3841 158.512 25.3147C158.067 23.9105 157.543 22.5295 156.942 21.1773C154.657 16.2714 151.516 12.0523 145.968 9.8937C145.028 9.54237 144.233 8.91759 143.7 8.11121C142.998 7.03978 142.027 6.14576 140.871 5.50723C139.715 4.8687 138.41 4.50508 137.07 4.44812C136.199 4.28339 135.295 4.36129 134.471 4.67222C133.646 4.98315 132.936 5.51351 132.429 6.1979C131.292 7.65606 130.512 9.33105 130.144 11.1038C129.356 14.9024 128.959 18.7631 128.958 22.6328C128.958 25.56 128.713 28.4872 128.556 31.4144C128.399 34.3416 128.172 37.2524 128.085 40.1796C127.934 51.7925 128.464 63.4044 129.673 74.9627C130.534 85.2869 131.115 95.6439 131.418 106.034C131.418 107.047 131.418 108.061 131.418 109.059C130.704 108.082 130.244 106.962 130.074 105.788C128.103 95.9764 125.747 86.3444 123.095 76.7288C120.653 67.9308 118.577 59.0348 116.937 50.0733C115.192 40.9188 112.909 31.8617 110.098 22.9435C109.049 19.2862 107.483 15.7772 105.439 12.5102C102.508 7.89862 99.0887 3.67952 93.3487 1.81527C92.1797 1.4555 91.098 0.915849 89.8593 0.490669C89.3447 0.295161 88.8052 0.16323 88.2542 0.098195C86.9374 -0.181804 85.5593 -0.0542811 84.3263 0.461655C83.0933 0.977591 82.0718 1.85415 81.415 2.95999C79.8265 5.37677 78.9645 8.15106 78.9201 10.9894C78.9201 12.7718 79.0423 14.5543 79.0248 16.3205C79.0248 19.2477 79.0249 22.1912 78.8504 25.1021C78.3095 33.7856 78.3619 42.4527 78.7457 51.1362C78.8504 53.4256 79.0597 55.7314 79.0248 58.0209C79.0127 63.7786 79.4033 69.5308 80.1938 75.2407C80.6998 79.3944 81.3453 83.5317 81.7814 87.6854C82.427 94.0304 82.9504 100.392 83.5261 106.753C83.5261 107.047 83.8576 107.571 82.9853 107.669C82.4327 106.072 82.047 104.429 81.8337 102.763C80.2112 93.1637 78.0478 83.6462 75.7274 74.1777C73.6163 65.5106 71.1214 56.9416 68.7486 48.3398C67.0931 42.2617 65.0006 36.2955 62.4853 30.4823C61.0682 26.9985 59.3041 23.6477 57.2163 20.4742C56.4463 19.1965 55.4024 18.0821 54.1503 17.2012C52.8981 16.3203 51.465 15.6919 49.9411 15.3556C49.1719 15.221 48.4861 14.8177 48.0219 14.2273C47.4744 13.571 46.7896 13.0266 46.0096 12.6273C45.2295 12.228 44.3707 11.9822 43.4857 11.9051C39.9964 11.4963 37.9028 12.1831 36.2454 15.0286C35.4311 16.5142 34.8046 18.0838 34.3785 19.7056C33.3143 23.4995 33.6806 27.3915 33.6632 31.2508C33.6632 34.6032 33.6632 37.9393 33.4887 41.2916C33.227 48.0782 32.7211 54.8647 32.6339 61.6513C32.5854 69.9245 33.4685 78.1795 35.2683 86.279C35.7394 88.503 35.9662 90.7761 36.35 93.2291C35.9313 92.9347 35.6696 92.853 35.5824 92.6894C35.1637 91.8391 34.7449 91.0541 34.4134 90.1056C31.7615 83.1065 28.4466 76.369 25.0794 69.6479C23.4157 66.0674 20.5317 63.1054 16.8794 61.2261C15.9684 60.8311 15.1812 60.2228 14.5938 59.4599C13.7558 58.4357 12.5665 57.7137 11.2266 57.4158C7.51045 56.2384 5.50408 56.9089 3.82919 60.1958C2.84657 62.182 2.06951 64.252 1.50874 66.3773C0.534205 70.6788 0.380608 75.1081 1.0551 79.4598C1.42999 82.5755 1.5699 85.7122 1.47381 88.8464C1.24317 93.9726 1.67085 99.1061 2.7475 104.137C3.51516 107.505 4.14323 110.907 4.70153 114.325C6.516 125.477 8.28973 136.641 10.0228 147.816C11.1045 154.749 12.0641 161.7 13.1109 168.633C13.582 171.74 14.0181 174.847 14.6113 177.938C16.8969 188.503 20.0347 198.89 23.9977 209.009C26.1262 214.847 28.0279 220.751 29.5457 226.752C30.6972 231.315 31.7092 235.91 33.2619 240.391C35.6521 247.357 37.7981 254.389 39.9964 261.404C41.2874 265.509 42.4389 269.581 43.6776 273.784C44.4627 276.384 45.1431 279.049 46.1899 281.568C48.4929 287.128 50.9704 292.622 53.4129 298.117C54.1027 299.664 54.8893 301.171 55.7683 302.63C58.8215 307.536 61.9095 312.573 65.0674 317.495C66.7391 319.942 67.6735 322.768 67.7716 325.672C67.9461 334.895 67.5448 344.086 66.8121 353.26C66.4282 358.264 66.1665 363.284 65.5908 368.272C64.9284 373.886 64.7883 379.544 65.1721 385.181C65.1456 387.508 66.0622 389.758 67.7368 391.477C68.437 392.288 69.0893 393.134 69.6908 394.012C70.6658 395.151 71.7023 396.242 72.7963 397.282C77.7192 401.713 83.4749 405.25 89.7721 407.715C90.8888 408.196 92.0592 408.558 93.2615 408.795C98.3036 409.629 103.363 410.43 108.44 411.166C113.051 411.884 117.735 412.093 122.398 411.787C124.945 411.591 127.509 411.346 130.074 411.231C139.461 410.823 148.236 408.124 156.925 405.05C158.582 404.461 160.152 403.627 161.758 402.908C164.377 401.705 166.566 399.813 168.056 397.462C170.554 393.862 172.449 389.924 173.674 385.786C176.986 373.848 179.641 361.758 181.629 349.564C182.345 345.328 182.886 341.06 183.845 336.874C184.761 333.101 185.879 329.373 187.195 325.705C188.608 321.535 190.074 317.348 191.836 313.293C194.278 307.684 196.843 302.107 199.687 296.662C201.848 292.54 203.775 288.315 205.462 284.004C208.316 276.634 210.647 269.095 212.441 261.437C214.447 253.162 215.249 244.708 216.453 236.319C217.326 230.105 217.989 223.858 218.686 217.627C219.803 207.635 220.815 197.644 221.949 187.668C222.226 185.177 222.663 182.703 223.258 180.26C224.357 175.878 225.648 171.544 226.869 167.178C227.318 165.021 227.942 162.9 228.736 160.833C232.4 152.934 234.144 144.48 237.11 136.303C237.315 135.705 237.466 135.093 237.564 134.472C238.105 131.843 238.022 129.135 237.32 126.54ZM224.077 130.203C221.426 134.913 218.652 139.59 216.104 144.349C213.166 150.002 211.289 156.087 210.556 162.337C210.199 164.103 210.547 165.931 211.533 167.472C212.818 169.432 214.621 171.049 216.767 172.165C217.745 172.478 218.758 172.686 219.786 172.787C219.419 174.733 218.983 176.548 218.739 178.412C217.75 185.771 216.791 193.136 215.86 200.505C214.796 209.025 213.819 217.562 212.72 226.065C211.69 234.062 210.574 242.042 209.422 250.023C207.728 260.995 204.888 271.786 200.943 282.238C200.001 284.806 198.762 287.291 197.96 289.891C196.442 294.797 193.65 299.049 191.382 303.563C189.39 307.308 187.687 311.183 186.288 315.157C185.642 317.152 184.909 319.131 184.055 321.06C180.945 328.457 178.824 336.185 177.739 344.069C175.629 357.944 172.717 371.701 169.015 385.279C167.986 388.909 166.555 392.442 165.369 396.039C165.229 396.491 164.986 396.909 164.658 397.264C164.33 397.62 163.924 397.905 163.467 398.1C161.497 399.073 159.47 399.941 157.396 400.7C151.009 402.904 144.461 404.675 137.803 405.998C136.704 406.195 135.605 406.375 134.488 406.473C130.394 406.832 126.282 407.176 122.153 407.503C117.806 407.787 113.438 407.595 109.138 406.931C103.134 406.281 97.2175 405.053 91.4819 403.267C88.377 402.385 85.5178 400.872 83.1074 398.836C82.2969 398.118 81.408 397.482 80.4555 396.939C76.5836 394.427 73.393 391.1 71.1389 387.225C70.7392 386.491 70.4962 385.691 70.4236 384.87C69.8388 379.663 69.9268 374.408 70.6853 369.22C71.4006 363.284 71.6797 357.348 71.8193 351.379C72.0112 343.333 72.0984 335.271 71.6971 327.226C71.7453 326.731 71.8269 326.239 71.9414 325.754C73.1627 326.702 73.9479 327.389 74.8377 327.961C75.5602 328.436 76.3388 328.831 77.158 329.139C77.978 329.433 78.9027 329.646 79.5657 328.779C79.8901 328.349 80.0643 327.834 80.0643 327.307C80.0643 326.78 79.8901 326.266 79.5657 325.836C79.1274 325.359 78.6615 324.906 78.1699 324.478L71.3657 318.101C69.2421 316.093 67.4751 313.78 66.1316 311.249C64.6661 308.55 62.9563 305.967 61.4908 303.268C60.0253 300.57 58.3853 297.479 57.0244 294.503C54.3843 288.51 52.1011 282.385 50.1853 276.155C48.3011 270.366 46.0853 264.708 44.2185 258.853C41.9329 251.756 39.4556 244.708 37.5364 237.512C36.2105 232.607 34.3785 227.701 32.7734 222.795C30.0691 214.618 27.2776 206.442 24.713 198.265C22.4022 191.304 20.6125 184.2 19.3568 177.006C18.5717 171.937 17.961 166.834 17.1934 161.765C16.4257 156.695 15.5709 151.839 14.7334 146.884C12.7968 135.535 10.8952 124.169 8.87134 112.82C8.2607 109.321 7.26617 105.886 6.62064 102.387C6.02744 99.198 5.67855 95.96 5.24238 92.7548C5.20685 92.1393 5.20685 91.5225 5.24238 90.9069C5.97514 91.1686 6.44621 91.2994 6.88238 91.4957C8.97519 92.2441 11.257 92.3977 13.4424 91.9372C14.1157 91.831 14.7308 91.5139 15.1871 91.0378C16.6891 89.6402 18.0607 88.1248 19.287 86.508C20.1269 85.0012 20.4151 83.2774 20.1071 81.602C19.9501 79.7378 19.6185 77.8735 19.2696 76.0256C18.7113 73.1311 18.0657 70.2693 17.5249 67.3912C17.441 66.8492 17.3887 66.3032 17.3679 65.7559C18.1007 66.2628 18.6415 66.4754 18.9032 66.8515C20.0852 68.3657 21.152 69.9559 22.0959 71.6103C26.8031 80.8558 30.9448 90.345 34.5007 100.032C37.2573 107.244 39.1589 114.652 41.1653 122.043C41.6538 123.875 42.1424 125.69 42.6658 127.522C42.7582 128.141 42.971 128.74 43.2938 129.288C44.5256 131.173 45.1328 133.358 45.0385 135.567C45.7538 145.494 47.2194 155.322 48.7547 165.166C49.0164 166.802 49.1036 168.437 49.2955 170.072C49.3117 171.337 49.7716 172.561 50.604 173.556C50.7151 173.668 50.85 173.759 51.0002 173.82C51.1503 173.882 51.3125 173.914 51.4764 173.914C51.6403 173.914 51.8024 173.882 51.9526 173.82C52.1027 173.759 52.2376 173.668 52.3487 173.556C52.6887 173.209 52.9505 172.801 53.1184 172.357C53.2863 171.913 53.3568 171.442 53.3257 170.972C53.3257 168.666 53.3257 166.36 52.9593 164.087C52.087 157.448 51.0402 150.825 50.1679 144.185C49.8015 141.487 49.6096 138.772 49.4177 136.009C48.7458 129.027 47.4384 122.112 45.5096 115.338C43.9219 109.255 42.3865 103.139 40.9559 97.023C39.9898 93.1513 39.4058 89.2044 39.2112 85.2324C39.2112 83.8915 38.7751 82.5505 38.5832 81.2096C37.3043 71.0287 36.7216 60.7817 36.8385 50.5312C36.8953 49.8278 37.0002 49.1287 37.1525 48.438C37.484 48.5851 37.641 48.6015 37.6759 48.6669C39.7172 52.6734 44.044 53.1313 48.3708 51.823C51.1602 50.9752 53.5991 49.3349 55.3495 47.1297C56.6211 45.654 57.3058 43.8099 57.2862 41.9131C57.2404 38.3535 56.6529 34.8183 55.5415 31.4144C54.8087 29.1086 53.9014 26.8519 53.064 24.5788C52.6802 23.5158 52.2789 22.4529 51.8602 21.3082C52.9593 21.0465 53.2036 21.7333 53.5176 22.1585C55.6214 25.2497 57.3756 28.5381 58.7517 31.9704C61.6807 38.8886 64.0828 45.9927 65.9397 53.2294C67.475 58.9039 68.993 64.5785 70.5806 70.2366C73.093 79.2526 75.1982 88.3395 76.8964 97.4972C78.3968 105.543 80.4904 113.458 82.4095 121.405C83.1248 124.365 83.9274 127.293 84.6078 130.253C84.8141 131.387 84.9249 132.536 84.9393 133.687C85.0348 138.393 85.4368 143.09 86.1431 147.75C86.5095 149.598 86.9282 151.446 87.4342 153.261C87.647 153.96 88.0091 154.611 88.4984 155.175C88.726 155.395 89.0154 155.552 89.3333 155.626C89.6512 155.699 89.9849 155.688 90.2961 155.592C90.6074 155.497 90.8837 155.321 91.0934 155.085C91.3031 154.849 91.4377 154.563 91.4819 154.259C91.4758 153.008 91.4001 151.758 91.255 150.514C90.8189 147.407 90.2955 144.316 89.8768 141.209C89.6674 139.754 89.5976 138.282 89.5278 136.826C89.0568 127.113 88.6206 117.383 88.1321 107.669C88.01 105.478 87.6959 103.303 87.5039 101.128C86.841 93.0983 86.2304 85.0689 85.5326 77.0395C85.0615 71.8392 84.3984 66.6389 83.9448 61.4387C83.561 56.8434 83.3167 52.2482 83.0376 47.653C82.8282 44.2189 82.6713 40.7684 82.4619 37.3342C82.2871 36.4576 82.4742 35.5516 82.9853 34.7995C83.5959 35.3718 84.1193 35.8951 84.73 36.4348C86.3559 37.903 88.5058 38.7528 90.7624 38.8193C93.0191 38.8857 95.2216 38.1642 96.9427 36.7945C98.6874 35.3064 100.764 33.8837 101.392 31.4634C101.76 30.2581 101.861 28.9947 101.688 27.7513C100.935 22.3649 99.7688 17.0364 98.1988 11.807C98.0069 11.2183 97.8674 10.5969 97.7104 9.99182C97.7104 9.99182 97.7976 9.81194 97.9197 9.50123C98.3396 9.7608 98.7417 10.0448 99.1236 10.3516C100.712 11.9738 102.025 13.8161 103.014 15.8135C104.626 18.9194 105.957 22.1469 106.992 25.4618C109.794 34.3868 112.042 43.4561 113.727 52.6243C115.21 60.5556 117.059 68.4051 119.222 76.2055C121.682 85.118 123.985 94.0467 125.974 103.057C127.51 110.024 129.568 116.876 131.365 123.777C131.543 124.765 131.625 125.767 131.609 126.769C131.854 131.152 131.993 135.551 132.203 139.852C132.261 140.894 132.389 141.932 132.587 142.959C132.64 143.435 132.831 143.889 133.138 144.272C133.445 144.655 133.858 144.953 134.331 145.134C134.88 145.073 135.389 144.834 135.769 144.457C136.148 144.08 136.374 143.591 136.407 143.073C136.523 142.354 136.57 141.626 136.547 140.898C136.163 126.459 135.867 112.035 135.326 97.6117C135.047 89.7622 134.401 81.9454 133.843 74.1123C133.197 65.0363 132.098 55.9767 132.098 46.8681V43.5974C132.696 43.7491 133.279 43.946 133.843 44.1861C137.245 46.1649 140.926 45.8215 144.555 45.1837C145.657 44.9614 146.676 44.4642 147.502 43.7446C148.328 43.025 148.931 42.1098 149.248 41.0954C150.563 37.85 151.018 34.354 150.574 30.9074C150.057 26.2539 149.034 21.6621 147.521 17.2035C147.346 16.7293 147.19 16.2387 147.033 15.8135C147.128 15.6861 147.251 15.5792 147.394 15.5C147.537 15.4207 147.696 15.3709 147.861 15.3539C148.026 15.3369 148.194 15.353 148.351 15.4013C148.509 15.4495 148.655 15.5287 148.777 15.6336C149.67 16.263 150.453 17.0189 151.098 17.874C152.17 19.3352 153.065 20.9039 153.767 22.551C156.971 30.3395 159.48 38.3637 161.269 46.541C163.014 55.4044 164.078 64.3332 165.003 73.2947C165.666 79.6397 166.573 85.952 167.271 92.297C168.3 101.765 170.184 111.152 170.603 120.67C170.847 126.426 170.847 132.117 170.865 137.922C170.864 140.329 171.127 142.729 171.65 145.085C172.627 149.484 173.395 153.915 174.354 158.314C175.174 162.108 176.221 165.853 177.111 169.631C178.419 175.125 179.728 180.636 180.966 186.164C181.786 189.843 182.572 193.539 183.235 197.251C183.682 199.62 183.973 202.012 184.107 204.414C184.409 207.327 184.922 210.217 185.642 213.065C185.769 213.399 185.926 213.721 186.113 214.029C187.573 212.515 188.376 210.543 188.364 208.502C188.441 204.419 188.096 200.339 187.335 196.319C186.358 191.07 185.241 185.837 184.055 180.636C183.778 179.532 183.933 178.372 184.491 177.366C187.224 172.085 189.528 166.619 191.382 161.013C194.266 152.515 198.901 144.631 205.026 137.808C206.421 136.303 207.852 134.848 209.37 133.458C211.935 131.101 215.109 129.411 218.582 128.552C220.595 127.985 222.734 127.935 224.775 128.405C224.479 129.108 224.269 129.68 224.077 130.203Z" fill="white"/>
<path fill-rule="evenodd" clip-rule="evenodd" d="M185.921 229.891C185.988 230.2 186.16 230.481 186.412 230.69C186.664 230.9 186.981 231.027 187.317 231.052C187.654 231.088 187.994 231.007 188.27 230.822C188.547 230.638 188.742 230.365 188.817 230.055C189.111 228.84 189.292 227.603 189.358 226.359C189.454 225.592 189.381 224.815 189.144 224.075C188.907 223.335 188.51 222.649 187.98 222.058C186.282 224.34 185.549 227.131 185.921 229.891Z" fill="white"/>
<path fill-rule="evenodd" clip-rule="evenodd" d="M90.1201 328.435C89.3688 328.173 88.5916 327.981 87.7997 327.863C87.2956 327.914 86.7948 327.99 86.2993 328.092C85.9706 328.148 85.6772 328.32 85.4793 328.572C85.2814 328.824 85.194 329.138 85.235 329.449C85.2888 329.69 85.3958 329.918 85.549 330.118C85.7023 330.318 85.8984 330.485 86.1248 330.61C86.7183 330.884 87.3664 331.039 88.0274 331.064C88.6884 331.089 89.3477 330.985 89.9631 330.757C90.2012 330.649 90.4098 330.49 90.5731 330.295C90.7363 330.099 90.8499 329.872 90.9052 329.629C90.8876 329.385 90.807 329.149 90.6702 328.941C90.5334 328.733 90.3445 328.559 90.1201 328.435Z" fill="white"/>
</g>
<defs>
<clipPath id="clip0_660_25084">
<rect width="237.276" height="412" fill="white" transform="translate(0.723633)"/>
</clipPath>
</defs>
</svg>
