<svg width="241" height="412" viewBox="0 0 241 412" fill="none" xmlns="http://www.w3.org/2000/svg">
<g clip-path="url(#clip0_660_25149)">
<path d="M184.104 291.808C183.074 291.328 181.975 290.87 180.83 290.436C166.612 284.946 145.594 282.132 142.594 265.524C160.676 260.446 176.537 249.47 187.653 234.343C190.754 230.058 193.394 225.457 195.529 220.618C197.126 217.039 198.54 213.382 199.765 209.66C216.502 208.196 231.475 196.209 232.78 177.267C233.262 170.572 231.577 163.899 227.972 158.234C246.701 126.848 244.824 88.0274 224.836 57.5792C207.641 31.3402 177.831 12.4902 145.845 17.706C108.892 -20.177 43.5018 8.69278 19.6215 46.9875C1.51106 76.1089 -3.98388 121.724 9.9138 156.45C5.38468 162.413 3.19417 169.825 3.75486 177.29C5.17439 197.879 22.5981 210.14 40.8917 209.82C43.5615 218.382 47.2349 226.598 51.8358 234.298C60.7383 249.727 75.3486 261.047 92.5215 265.821C89.3161 282.155 68.481 284.968 54.3544 290.436C53.2325 290.87 52.0647 291.328 51.1031 291.808C38.4208 297.403 27.3221 306.049 18.7973 316.972C-0.824264 343.234 -0.435038 377.663 0.480789 408.82C0.492015 409.636 0.816789 410.416 1.38787 411C1.95895 411.583 2.73268 411.925 3.54887 411.954C3.74465 412 3.9484 412 4.14418 411.954C4.5412 411.946 4.9324 411.857 5.294 411.693C5.6556 411.529 5.97996 411.293 6.24761 411C6.51527 410.707 6.72051 410.363 6.85089 409.988C6.98126 409.613 7.03415 409.216 7.00614 408.82C6.02163 370.159 7.00615 326.329 43.6392 303.361C47.9002 300.847 52.4122 298.785 57.1019 297.207C68.7482 307.654 80.5547 317.933 92.5215 328.044C98.1767 332.78 107.06 343.554 115.577 342.548C125.652 341.335 137.832 329.234 145.594 323.355C156.618 315.033 167.202 306.145 177.304 296.727C182.405 298.397 187.316 300.598 191.957 303.292C228.591 326.168 229.506 370.091 228.591 408.751C228.562 409.149 228.616 409.548 228.748 409.925C228.88 410.301 229.087 410.646 229.357 410.94C229.627 411.233 229.954 411.468 230.318 411.631C230.683 411.794 231.076 411.88 231.475 411.885C231.679 411.932 231.89 411.932 232.094 411.885C232.907 411.862 233.68 411.52 234.244 410.934C234.809 410.348 235.122 409.565 235.116 408.751C235.917 377.594 236.329 343.165 216.799 316.904C208.159 305.952 196.922 297.327 184.104 291.808ZM225.042 181.682C223.685 187.082 220.766 191.963 216.649 195.714C212.532 199.465 207.4 201.921 201.894 202.774C205.959 187.131 208.218 171.074 208.626 154.917C210.697 154.855 212.759 155.21 214.691 155.961C216.622 156.712 218.382 157.843 219.867 159.287C225.706 164.914 227.034 174.088 225.065 181.682H225.042ZM11.4707 181.682C9.92295 175.753 10.5736 169.464 13.3025 163.976C18.5761 174.626 26.3438 183.847 35.9462 190.856C36.8162 195.019 37.7779 199.137 38.8769 203.117C32.5939 203.031 26.5128 200.887 21.5664 197.015C16.62 193.143 13.0815 187.757 11.4936 181.682H11.4707ZM36.6559 182.643C1.60265 153.911 3.2283 89.9032 23.8344 53.7817C34.8598 34.49 52.4741 19.8143 73.4493 12.4445C95.5895 4.71233 124.598 5.37572 141.633 23.425C141.852 23.6361 142.09 23.8274 142.343 23.9969C142.756 24.407 143.267 24.706 143.828 24.866C144.388 25.026 144.98 25.0418 145.548 24.912C176.503 18.7583 205.489 38.8436 220.943 64.4649C229.111 77.6734 233.614 92.8148 233.992 108.336C234.371 123.857 230.61 139.2 223.096 152.79C221.514 151.508 219.766 150.446 217.898 149.633C215.004 148.401 211.886 147.778 208.74 147.803C208.9 140.94 208.854 134.077 208.74 127.466L212.106 127.031C216.685 126.414 214.693 119.642 210.274 120.283C195.171 122.598 179.761 118.922 167.334 110.041C154.907 101.159 146.448 87.7747 143.762 72.7461C143.656 72.2079 143.414 71.7058 143.058 71.288C142.702 70.8702 142.245 70.5508 141.73 70.3602C141.216 70.1696 140.661 70.1143 140.118 70.1996C139.576 70.2849 139.065 70.508 138.633 70.8474C138.07 70.9914 137.565 71.3063 137.188 71.7486C136.811 72.191 136.58 72.7393 136.527 73.318C131.009 105.07 94.1929 118.544 69.3969 132.956C49.4548 144.532 41.7617 161.254 36.7018 182.643H36.6559ZM59.8493 234.343C51.0345 221.83 45.6082 206 42.1739 188.98C42.3835 188.632 42.538 188.254 42.6318 187.859C45.5625 174.568 48.7907 159.836 58.4068 149.61C59.2769 148.695 60.1927 147.849 61.1314 147.025C61.6158 147.114 62.1124 147.114 62.5968 147.025C72.2512 144.487 82.3864 144.393 92.0865 146.751C96.4824 147.78 98.3599 141.031 93.9639 139.888C87.2199 138.287 80.2759 137.694 73.3578 138.126C80.7531 133.688 88.7894 129.937 95.7726 125.933C113.494 115.845 132.2 104.544 140.076 85.694C144.789 98.1469 153.208 108.858 164.199 116.384C175.191 123.91 188.226 127.889 201.551 127.786C203.199 166.904 199.261 208.059 179.09 234.343C166.291 251.112 146.922 261.795 118.302 262.115C90.2319 262.412 71.9154 251.409 59.8951 234.343H59.8493ZM147.654 312.877C139.229 319.511 129.544 328.387 119.699 332.825C111.41 336.623 108.48 332.528 102.367 327.449C97.7875 323.652 93.2083 319.786 88.6292 316.011C80.4325 308.988 72.3503 301.851 64.2911 294.691C68.1375 293.387 71.984 292.037 75.7389 290.527C86.9349 285.952 96.5282 279.615 98.6346 267.468C105.101 268.691 111.675 269.258 118.256 269.161C124.268 269.116 130.26 268.457 136.138 267.194C138.198 279.547 147.883 285.906 159.194 290.527C162.514 291.9 165.948 293.112 169.382 294.302C162.491 300.661 155.233 306.93 147.7 312.877H147.654Z" fill="white"/>
<path d="M89.3618 160.591C85.6009 159.222 81.5718 158.751 77.5964 159.216C73.6209 159.681 69.8093 161.068 66.4662 163.267C62.6655 165.692 66.1914 171.754 70.015 169.329C72.9484 167.447 76.2797 166.273 79.7456 165.898C78.7611 165.898 78.3949 170.954 78.3949 171.663C78.3763 173.902 78.9361 176.108 80.0204 178.068C82.3099 181.98 86.8892 184.473 90.9875 181.66C92.4833 180.468 93.7051 178.968 94.5702 177.263C95.4354 175.558 95.9236 173.687 96.0016 171.777C96.2069 169.453 95.6763 167.122 94.485 165.115C93.2937 163.108 91.5017 161.526 89.3618 160.591Z" fill="white"/>
<path d="M173.87 163.267C170.528 161.065 166.716 159.676 162.74 159.211C158.764 158.746 154.734 159.219 150.974 160.591C148.832 161.521 147.039 163.103 145.851 165.112C144.662 167.121 144.14 169.454 144.357 171.777C144.431 173.688 144.917 175.561 145.783 177.267C146.648 178.972 147.872 180.471 149.371 181.66C153.47 184.474 158.118 181.98 160.316 178.068C161.407 176.11 161.975 173.904 161.964 171.663C161.964 170.954 161.598 165.99 160.613 165.898C164.078 166.277 167.409 167.451 170.344 169.33C174.167 171.755 177.671 165.692 173.87 163.267Z" fill="white"/>
<path d="M125.743 195.912C130.025 194.585 128.193 187.813 123.866 189.049C121.324 189.827 118.989 190.719 117.844 188.088C117.203 186.555 118.394 182.483 118.577 180.768C119.126 175.872 119.859 170.977 120.66 166.104C121.393 161.689 114.639 159.79 113.906 164.251C113.174 168.712 112.487 173.173 111.937 177.634C111.047 181.804 110.685 186.069 110.861 190.33C111.869 197.376 120.454 197.467 125.743 195.912Z" fill="white"/>
<path d="M140.145 216.088C143.899 213.618 140.396 207.556 136.596 210.026C126.842 216.432 114.479 218.536 105.572 209.454C102.412 206.229 97.4442 211.17 100.604 214.418C111.617 225.651 127.712 224.209 140.145 216.088Z" fill="white"/>
<path d="M144.495 146.934C154.158 144.407 164.298 144.313 174.007 146.659C178.403 147.711 180.258 140.94 175.862 139.796C164.933 137.164 153.524 137.258 142.64 140.071C138.313 141.283 140.099 148.055 144.495 146.934Z" fill="white"/>
</g>
<defs>
<clipPath id="clip0_660_25149">
<rect width="241" height="412" fill="white"/>
</clipPath>
</defs>
</svg>
